<mxfile host="app.diagrams.net" agent="Mozilla/5.0 (Windows NT 10.0; Win64; x64) AppleWebKit/537.36 (KHTML, like Gecko) Chrome/137.0.0.0 Safari/537.36" version="27.1.1">
  <diagram name="PÃ¡gina-1" id="o79YsFWNW1X-kOFvnmgA">
    <mxGraphModel dx="2770" dy="2743" grid="1" gridSize="10" guides="1" tooltips="1" connect="1" arrows="1" fold="1" page="1" pageScale="1" pageWidth="827" pageHeight="1169" math="0" shadow="0">
      <root>
        <mxCell id="0" />
        <mxCell id="1" parent="0" />
        <mxCell id="aA8r4PkvwZg-LG98r7ih-1" value="Pessoa" style="swimlane;fontStyle=1;align=center;verticalAlign=top;childLayout=stackLayout;horizontal=1;startSize=26;horizontalStack=0;resizeParent=1;resizeParentMax=0;resizeLast=0;collapsible=1;marginBottom=0;whiteSpace=wrap;html=1;" vertex="1" parent="1">
          <mxGeometry x="120" y="30" width="160" height="88" as="geometry" />
        </mxCell>
        <mxCell id="aA8r4PkvwZg-LG98r7ih-2" value="- id: int;&lt;div&gt;- nome: string;&lt;/div&gt;&lt;div&gt;- cpf: string&lt;/div&gt;" style="text;strokeColor=none;fillColor=none;align=left;verticalAlign=top;spacingLeft=4;spacingRight=4;overflow=hidden;rotatable=0;points=[[0,0.5],[1,0.5]];portConstraint=eastwest;whiteSpace=wrap;html=1;" vertex="1" parent="aA8r4PkvwZg-LG98r7ih-1">
          <mxGeometry y="26" width="160" height="54" as="geometry" />
        </mxCell>
        <mxCell id="aA8r4PkvwZg-LG98r7ih-3" value="" style="line;strokeWidth=1;fillColor=none;align=left;verticalAlign=middle;spacingTop=-1;spacingLeft=3;spacingRight=3;rotatable=0;labelPosition=right;points=[];portConstraint=eastwest;strokeColor=inherit;" vertex="1" parent="aA8r4PkvwZg-LG98r7ih-1">
          <mxGeometry y="80" width="160" height="8" as="geometry" />
        </mxCell>
        <mxCell id="aA8r4PkvwZg-LG98r7ih-14" style="edgeStyle=orthogonalEdgeStyle;rounded=0;orthogonalLoop=1;jettySize=auto;html=1;entryX=0.25;entryY=1;entryDx=0;entryDy=0;" edge="1" parent="1" source="aA8r4PkvwZg-LG98r7ih-5" target="aA8r4PkvwZg-LG98r7ih-1">
          <mxGeometry relative="1" as="geometry" />
        </mxCell>
        <mxCell id="aA8r4PkvwZg-LG98r7ih-5" value="Aluno" style="swimlane;fontStyle=1;align=center;verticalAlign=top;childLayout=stackLayout;horizontal=1;startSize=26;horizontalStack=0;resizeParent=1;resizeParentMax=0;resizeLast=0;collapsible=1;marginBottom=0;whiteSpace=wrap;html=1;" vertex="1" parent="1">
          <mxGeometry x="30" y="160" width="160" height="58" as="geometry" />
        </mxCell>
        <mxCell id="aA8r4PkvwZg-LG98r7ih-6" value="- matricula: int;" style="text;strokeColor=none;fillColor=none;align=left;verticalAlign=top;spacingLeft=4;spacingRight=4;overflow=hidden;rotatable=0;points=[[0,0.5],[1,0.5]];portConstraint=eastwest;whiteSpace=wrap;html=1;" vertex="1" parent="aA8r4PkvwZg-LG98r7ih-5">
          <mxGeometry y="26" width="160" height="24" as="geometry" />
        </mxCell>
        <mxCell id="aA8r4PkvwZg-LG98r7ih-7" value="" style="line;strokeWidth=1;fillColor=none;align=left;verticalAlign=middle;spacingTop=-1;spacingLeft=3;spacingRight=3;rotatable=0;labelPosition=right;points=[];portConstraint=eastwest;strokeColor=inherit;" vertex="1" parent="aA8r4PkvwZg-LG98r7ih-5">
          <mxGeometry y="50" width="160" height="8" as="geometry" />
        </mxCell>
        <mxCell id="aA8r4PkvwZg-LG98r7ih-13" style="edgeStyle=orthogonalEdgeStyle;rounded=0;orthogonalLoop=1;jettySize=auto;html=1;entryX=0.75;entryY=1;entryDx=0;entryDy=0;" edge="1" parent="1" source="aA8r4PkvwZg-LG98r7ih-8" target="aA8r4PkvwZg-LG98r7ih-1">
          <mxGeometry relative="1" as="geometry" />
        </mxCell>
        <mxCell id="aA8r4PkvwZg-LG98r7ih-8" value="Professor" style="swimlane;fontStyle=1;align=center;verticalAlign=top;childLayout=stackLayout;horizontal=1;startSize=26;horizontalStack=0;resizeParent=1;resizeParentMax=0;resizeLast=0;collapsible=1;marginBottom=0;whiteSpace=wrap;html=1;" vertex="1" parent="1">
          <mxGeometry x="200" y="260" width="160" height="58" as="geometry" />
        </mxCell>
        <mxCell id="aA8r4PkvwZg-LG98r7ih-9" value="- especialidade: string;" style="text;strokeColor=none;fillColor=none;align=left;verticalAlign=top;spacingLeft=4;spacingRight=4;overflow=hidden;rotatable=0;points=[[0,0.5],[1,0.5]];portConstraint=eastwest;whiteSpace=wrap;html=1;" vertex="1" parent="aA8r4PkvwZg-LG98r7ih-8">
          <mxGeometry y="26" width="160" height="24" as="geometry" />
        </mxCell>
        <mxCell id="aA8r4PkvwZg-LG98r7ih-10" value="" style="line;strokeWidth=1;fillColor=none;align=left;verticalAlign=middle;spacingTop=-1;spacingLeft=3;spacingRight=3;rotatable=0;labelPosition=right;points=[];portConstraint=eastwest;strokeColor=inherit;" vertex="1" parent="aA8r4PkvwZg-LG98r7ih-8">
          <mxGeometry y="50" width="160" height="8" as="geometry" />
        </mxCell>
        <mxCell id="aA8r4PkvwZg-LG98r7ih-15" value="Turma&lt;div&gt;&lt;br&gt;&lt;/div&gt;" style="swimlane;fontStyle=1;align=center;verticalAlign=top;childLayout=stackLayout;horizontal=1;startSize=26;horizontalStack=0;resizeParent=1;resizeParentMax=0;resizeLast=0;collapsible=1;marginBottom=0;whiteSpace=wrap;html=1;" vertex="1" parent="1">
          <mxGeometry x="667" y="410" width="160" height="108" as="geometry" />
        </mxCell>
        <mxCell id="aA8r4PkvwZg-LG98r7ih-16" value="- id: int;&lt;div&gt;- nome: string;&lt;/div&gt;&lt;div&gt;- ano: int&lt;/div&gt;&lt;div&gt;- professor: Professor;&lt;/div&gt;" style="text;strokeColor=none;fillColor=none;align=left;verticalAlign=top;spacingLeft=4;spacingRight=4;overflow=hidden;rotatable=0;points=[[0,0.5],[1,0.5]];portConstraint=eastwest;whiteSpace=wrap;html=1;" vertex="1" parent="aA8r4PkvwZg-LG98r7ih-15">
          <mxGeometry y="26" width="160" height="74" as="geometry" />
        </mxCell>
        <mxCell id="aA8r4PkvwZg-LG98r7ih-17" value="" style="line;strokeWidth=1;fillColor=none;align=left;verticalAlign=middle;spacingTop=-1;spacingLeft=3;spacingRight=3;rotatable=0;labelPosition=right;points=[];portConstraint=eastwest;strokeColor=inherit;" vertex="1" parent="aA8r4PkvwZg-LG98r7ih-15">
          <mxGeometry y="100" width="160" height="8" as="geometry" />
        </mxCell>
        <mxCell id="aA8r4PkvwZg-LG98r7ih-18" value="" style="endArrow=diamondThin;endFill=0;endSize=24;html=1;rounded=0;exitX=0.5;exitY=1;exitDx=0;exitDy=0;entryX=0.5;entryY=0;entryDx=0;entryDy=0;" edge="1" parent="1" source="aA8r4PkvwZg-LG98r7ih-8" target="aA8r4PkvwZg-LG98r7ih-15">
          <mxGeometry width="160" relative="1" as="geometry">
            <mxPoint x="190" y="300" as="sourcePoint" />
            <mxPoint x="310" y="250" as="targetPoint" />
          </mxGeometry>
        </mxCell>
        <mxCell id="aA8r4PkvwZg-LG98r7ih-19" value="&lt;div&gt;Disciplina&lt;/div&gt;" style="swimlane;fontStyle=1;align=center;verticalAlign=top;childLayout=stackLayout;horizontal=1;startSize=26;horizontalStack=0;resizeParent=1;resizeParentMax=0;resizeLast=0;collapsible=1;marginBottom=0;whiteSpace=wrap;html=1;" vertex="1" parent="1">
          <mxGeometry x="-170" y="160" width="160" height="88" as="geometry" />
        </mxCell>
        <mxCell id="aA8r4PkvwZg-LG98r7ih-20" value="- id: int;&lt;div&gt;- nome: string;&lt;/div&gt;&lt;div&gt;- codigo: int&lt;/div&gt;" style="text;strokeColor=none;fillColor=none;align=left;verticalAlign=top;spacingLeft=4;spacingRight=4;overflow=hidden;rotatable=0;points=[[0,0.5],[1,0.5]];portConstraint=eastwest;whiteSpace=wrap;html=1;" vertex="1" parent="aA8r4PkvwZg-LG98r7ih-19">
          <mxGeometry y="26" width="160" height="54" as="geometry" />
        </mxCell>
        <mxCell id="aA8r4PkvwZg-LG98r7ih-21" value="" style="line;strokeWidth=1;fillColor=none;align=left;verticalAlign=middle;spacingTop=-1;spacingLeft=3;spacingRight=3;rotatable=0;labelPosition=right;points=[];portConstraint=eastwest;strokeColor=inherit;" vertex="1" parent="aA8r4PkvwZg-LG98r7ih-19">
          <mxGeometry y="80" width="160" height="8" as="geometry" />
        </mxCell>
        <mxCell id="aA8r4PkvwZg-LG98r7ih-25" value="&lt;div&gt;Matricula&lt;/div&gt;" style="swimlane;fontStyle=1;align=center;verticalAlign=top;childLayout=stackLayout;horizontal=1;startSize=26;horizontalStack=0;resizeParent=1;resizeParentMax=0;resizeLast=0;collapsible=1;marginBottom=0;whiteSpace=wrap;html=1;" vertex="1" parent="1">
          <mxGeometry x="-493" y="460" width="160" height="88" as="geometry" />
        </mxCell>
        <mxCell id="aA8r4PkvwZg-LG98r7ih-26" value="- id: int;&lt;div&gt;- aluno: Aluno;&lt;/div&gt;&lt;div&gt;- disciplina: Disciplina;&lt;/div&gt;" style="text;strokeColor=none;fillColor=none;align=left;verticalAlign=top;spacingLeft=4;spacingRight=4;overflow=hidden;rotatable=0;points=[[0,0.5],[1,0.5]];portConstraint=eastwest;whiteSpace=wrap;html=1;" vertex="1" parent="aA8r4PkvwZg-LG98r7ih-25">
          <mxGeometry y="26" width="160" height="54" as="geometry" />
        </mxCell>
        <mxCell id="aA8r4PkvwZg-LG98r7ih-27" value="" style="line;strokeWidth=1;fillColor=none;align=left;verticalAlign=middle;spacingTop=-1;spacingLeft=3;spacingRight=3;rotatable=0;labelPosition=right;points=[];portConstraint=eastwest;strokeColor=inherit;" vertex="1" parent="aA8r4PkvwZg-LG98r7ih-25">
          <mxGeometry y="80" width="160" height="8" as="geometry" />
        </mxCell>
        <mxCell id="aA8r4PkvwZg-LG98r7ih-28" value="" style="endArrow=diamondThin;endFill=0;endSize=24;html=1;rounded=0;exitX=0.5;exitY=1;exitDx=0;exitDy=0;entryX=0.5;entryY=0;entryDx=0;entryDy=0;" edge="1" parent="1" source="aA8r4PkvwZg-LG98r7ih-19" target="aA8r4PkvwZg-LG98r7ih-25">
          <mxGeometry width="160" relative="1" as="geometry">
            <mxPoint x="-180" y="460" as="sourcePoint" />
            <mxPoint x="-180" y="542" as="targetPoint" />
          </mxGeometry>
        </mxCell>
        <mxCell id="aA8r4PkvwZg-LG98r7ih-29" value="" style="endArrow=diamondThin;endFill=0;endSize=24;html=1;rounded=0;exitX=0.5;exitY=1;exitDx=0;exitDy=0;entryX=1;entryY=0.5;entryDx=0;entryDy=0;" edge="1" parent="1" source="aA8r4PkvwZg-LG98r7ih-5" target="aA8r4PkvwZg-LG98r7ih-26">
          <mxGeometry width="160" relative="1" as="geometry">
            <mxPoint x="90" y="260" as="sourcePoint" />
            <mxPoint x="90" y="312" as="targetPoint" />
          </mxGeometry>
        </mxCell>
        <mxCell id="aA8r4PkvwZg-LG98r7ih-30" value="&lt;div&gt;Nota&lt;/div&gt;" style="swimlane;fontStyle=1;align=center;verticalAlign=top;childLayout=stackLayout;horizontal=1;startSize=26;horizontalStack=0;resizeParent=1;resizeParentMax=0;resizeLast=0;collapsible=1;marginBottom=0;whiteSpace=wrap;html=1;" vertex="1" parent="1">
          <mxGeometry x="110" y="450" width="160" height="108" as="geometry" />
        </mxCell>
        <mxCell id="aA8r4PkvwZg-LG98r7ih-31" value="- id: int;&lt;div&gt;- aluno: Aluno;&lt;/div&gt;&lt;div&gt;- disciplina: Disciplina;&lt;/div&gt;&lt;div&gt;- valor: double&lt;/div&gt;" style="text;strokeColor=none;fillColor=none;align=left;verticalAlign=top;spacingLeft=4;spacingRight=4;overflow=hidden;rotatable=0;points=[[0,0.5],[1,0.5]];portConstraint=eastwest;whiteSpace=wrap;html=1;" vertex="1" parent="aA8r4PkvwZg-LG98r7ih-30">
          <mxGeometry y="26" width="160" height="74" as="geometry" />
        </mxCell>
        <mxCell id="aA8r4PkvwZg-LG98r7ih-32" value="" style="line;strokeWidth=1;fillColor=none;align=left;verticalAlign=middle;spacingTop=-1;spacingLeft=3;spacingRight=3;rotatable=0;labelPosition=right;points=[];portConstraint=eastwest;strokeColor=inherit;" vertex="1" parent="aA8r4PkvwZg-LG98r7ih-30">
          <mxGeometry y="100" width="160" height="8" as="geometry" />
        </mxCell>
        <mxCell id="aA8r4PkvwZg-LG98r7ih-33" value="" style="endArrow=diamondThin;endFill=0;endSize=24;html=1;rounded=0;exitX=0.5;exitY=1;exitDx=0;exitDy=0;entryX=0.5;entryY=0;entryDx=0;entryDy=0;" edge="1" parent="1" source="aA8r4PkvwZg-LG98r7ih-19" target="aA8r4PkvwZg-LG98r7ih-30">
          <mxGeometry width="160" relative="1" as="geometry">
            <mxPoint x="260" y="380" as="sourcePoint" />
            <mxPoint x="90" y="575" as="targetPoint" />
          </mxGeometry>
        </mxCell>
        <mxCell id="aA8r4PkvwZg-LG98r7ih-34" value="" style="endArrow=diamondThin;endFill=0;endSize=24;html=1;rounded=0;exitX=0.5;exitY=1;exitDx=0;exitDy=0;entryX=0.75;entryY=0;entryDx=0;entryDy=0;" edge="1" parent="1" source="aA8r4PkvwZg-LG98r7ih-5" target="aA8r4PkvwZg-LG98r7ih-30">
          <mxGeometry width="160" relative="1" as="geometry">
            <mxPoint x="290" y="340" as="sourcePoint" />
            <mxPoint x="120" y="370" as="targetPoint" />
          </mxGeometry>
        </mxCell>
        <mxCell id="aA8r4PkvwZg-LG98r7ih-40" value="&amp;lt;&amp;lt;interface&amp;gt;&amp;gt;&lt;div&gt;CrudDAO&lt;/div&gt;" style="swimlane;fontStyle=1;align=center;verticalAlign=top;childLayout=stackLayout;horizontal=1;startSize=40;horizontalStack=0;resizeParent=1;resizeParentMax=0;resizeLast=0;collapsible=1;marginBottom=0;whiteSpace=wrap;html=1;" vertex="1" parent="1">
          <mxGeometry x="90" y="993" width="160" height="130" as="geometry" />
        </mxCell>
        <mxCell id="aA8r4PkvwZg-LG98r7ih-42" value="" style="line;strokeWidth=1;fillColor=none;align=left;verticalAlign=middle;spacingTop=-1;spacingLeft=3;spacingRight=3;rotatable=0;labelPosition=right;points=[];portConstraint=eastwest;strokeColor=inherit;" vertex="1" parent="aA8r4PkvwZg-LG98r7ih-40">
          <mxGeometry y="40" width="160" height="8" as="geometry" />
        </mxCell>
        <mxCell id="aA8r4PkvwZg-LG98r7ih-43" value="+ inserir(obj: T): void;&lt;div&gt;+ editar(&lt;span style=&quot;background-color: transparent; color: light-dark(rgb(0, 0, 0), rgb(255, 255, 255));&quot;&gt;obj:&amp;nbsp;&lt;/span&gt;&lt;span style=&quot;background-color: transparent; color: light-dark(rgb(0, 0, 0), rgb(255, 255, 255));&quot;&gt;T): void;&lt;/span&gt;&lt;/div&gt;&lt;div&gt;+ visualizar(id: int): T;&lt;/div&gt;&lt;div&gt;+ deletar(id: int): void;&lt;/div&gt;&lt;div&gt;+ listar(): List&amp;lt;T&amp;gt;;&lt;/div&gt;" style="text;strokeColor=none;fillColor=none;align=left;verticalAlign=top;spacingLeft=4;spacingRight=4;overflow=hidden;rotatable=0;points=[[0,0.5],[1,0.5]];portConstraint=eastwest;whiteSpace=wrap;html=1;" vertex="1" parent="aA8r4PkvwZg-LG98r7ih-40">
          <mxGeometry y="48" width="160" height="82" as="geometry" />
        </mxCell>
        <mxCell id="aA8r4PkvwZg-LG98r7ih-88" style="edgeStyle=orthogonalEdgeStyle;rounded=0;orthogonalLoop=1;jettySize=auto;html=1;entryX=0;entryY=0.5;entryDx=0;entryDy=0;" edge="1" parent="1" source="aA8r4PkvwZg-LG98r7ih-44" target="aA8r4PkvwZg-LG98r7ih-43">
          <mxGeometry relative="1" as="geometry" />
        </mxCell>
        <mxCell id="aA8r4PkvwZg-LG98r7ih-44" value="AlunoDAO" style="swimlane;fontStyle=1;align=center;verticalAlign=top;childLayout=stackLayout;horizontal=1;startSize=26;horizontalStack=0;resizeParent=1;resizeParentMax=0;resizeLast=0;collapsible=1;marginBottom=0;whiteSpace=wrap;html=1;" vertex="1" parent="1">
          <mxGeometry x="-400" y="773" width="160" height="150" as="geometry" />
        </mxCell>
        <mxCell id="aA8r4PkvwZg-LG98r7ih-45" value="- conn: Connection;" style="text;strokeColor=none;fillColor=none;align=left;verticalAlign=top;spacingLeft=4;spacingRight=4;overflow=hidden;rotatable=0;points=[[0,0.5],[1,0.5]];portConstraint=eastwest;whiteSpace=wrap;html=1;" vertex="1" parent="aA8r4PkvwZg-LG98r7ih-44">
          <mxGeometry y="26" width="160" height="26" as="geometry" />
        </mxCell>
        <mxCell id="aA8r4PkvwZg-LG98r7ih-46" value="" style="line;strokeWidth=1;fillColor=none;align=left;verticalAlign=middle;spacingTop=-1;spacingLeft=3;spacingRight=3;rotatable=0;labelPosition=right;points=[];portConstraint=eastwest;strokeColor=inherit;" vertex="1" parent="aA8r4PkvwZg-LG98r7ih-44">
          <mxGeometry y="52" width="160" height="8" as="geometry" />
        </mxCell>
        <mxCell id="aA8r4PkvwZg-LG98r7ih-47" value="+ inserir(aluno: Aluno): void;&lt;div&gt;+ editar(aluno: Aluno): void;&lt;/div&gt;&lt;div&gt;+ visualizar(id: int): Aluno;&lt;/div&gt;&lt;div&gt;+ deletar(id: int): void;&lt;/div&gt;&lt;div&gt;+ listar(): List&amp;lt;Aluno&amp;gt;;&lt;/div&gt;" style="text;strokeColor=none;fillColor=none;align=left;verticalAlign=top;spacingLeft=4;spacingRight=4;overflow=hidden;rotatable=0;points=[[0,0.5],[1,0.5]];portConstraint=eastwest;whiteSpace=wrap;html=1;" vertex="1" parent="aA8r4PkvwZg-LG98r7ih-44">
          <mxGeometry y="60" width="160" height="90" as="geometry" />
        </mxCell>
        <mxCell id="aA8r4PkvwZg-LG98r7ih-48" value="Connection" style="swimlane;fontStyle=1;align=center;verticalAlign=top;childLayout=stackLayout;horizontal=1;startSize=26;horizontalStack=0;resizeParent=1;resizeParentMax=0;resizeLast=0;collapsible=1;marginBottom=0;whiteSpace=wrap;html=1;" vertex="1" parent="1">
          <mxGeometry x="430" y="488" width="190" height="60" as="geometry" />
        </mxCell>
        <mxCell id="aA8r4PkvwZg-LG98r7ih-50" value="" style="line;strokeWidth=1;fillColor=none;align=left;verticalAlign=middle;spacingTop=-1;spacingLeft=3;spacingRight=3;rotatable=0;labelPosition=right;points=[];portConstraint=eastwest;strokeColor=inherit;" vertex="1" parent="aA8r4PkvwZg-LG98r7ih-48">
          <mxGeometry y="26" width="190" height="8" as="geometry" />
        </mxCell>
        <mxCell id="aA8r4PkvwZg-LG98r7ih-51" value="+ getConnection(): Connection;" style="text;strokeColor=none;fillColor=none;align=left;verticalAlign=top;spacingLeft=4;spacingRight=4;overflow=hidden;rotatable=0;points=[[0,0.5],[1,0.5]];portConstraint=eastwest;whiteSpace=wrap;html=1;" vertex="1" parent="aA8r4PkvwZg-LG98r7ih-48">
          <mxGeometry y="34" width="190" height="26" as="geometry" />
        </mxCell>
        <mxCell id="aA8r4PkvwZg-LG98r7ih-89" style="edgeStyle=orthogonalEdgeStyle;rounded=0;orthogonalLoop=1;jettySize=auto;html=1;entryX=0;entryY=0.5;entryDx=0;entryDy=0;" edge="1" parent="1" source="aA8r4PkvwZg-LG98r7ih-52" target="aA8r4PkvwZg-LG98r7ih-43">
          <mxGeometry relative="1" as="geometry" />
        </mxCell>
        <mxCell id="aA8r4PkvwZg-LG98r7ih-52" value="ProfessorDAO" style="swimlane;fontStyle=1;align=center;verticalAlign=top;childLayout=stackLayout;horizontal=1;startSize=26;horizontalStack=0;resizeParent=1;resizeParentMax=0;resizeLast=0;collapsible=1;marginBottom=0;whiteSpace=wrap;html=1;" vertex="1" parent="1">
          <mxGeometry x="-230" y="773" width="220" height="150" as="geometry" />
        </mxCell>
        <mxCell id="aA8r4PkvwZg-LG98r7ih-53" value="- conn: Connection;" style="text;strokeColor=none;fillColor=none;align=left;verticalAlign=top;spacingLeft=4;spacingRight=4;overflow=hidden;rotatable=0;points=[[0,0.5],[1,0.5]];portConstraint=eastwest;whiteSpace=wrap;html=1;" vertex="1" parent="aA8r4PkvwZg-LG98r7ih-52">
          <mxGeometry y="26" width="220" height="26" as="geometry" />
        </mxCell>
        <mxCell id="aA8r4PkvwZg-LG98r7ih-54" value="" style="line;strokeWidth=1;fillColor=none;align=left;verticalAlign=middle;spacingTop=-1;spacingLeft=3;spacingRight=3;rotatable=0;labelPosition=right;points=[];portConstraint=eastwest;strokeColor=inherit;" vertex="1" parent="aA8r4PkvwZg-LG98r7ih-52">
          <mxGeometry y="52" width="220" height="8" as="geometry" />
        </mxCell>
        <mxCell id="aA8r4PkvwZg-LG98r7ih-55" value="+ inserir(professor:&amp;nbsp;&lt;span style=&quot;font-weight: 700; text-align: center;&quot;&gt;Professor&lt;/span&gt;): void;&lt;div&gt;+ editar(professor:&amp;nbsp;&lt;span style=&quot;font-weight: 700; text-align: center;&quot;&gt;Professor&lt;/span&gt;): void;&lt;/div&gt;&lt;div&gt;+ visualizar(id: int):&amp;nbsp;&lt;span style=&quot;font-weight: 700; text-align: center;&quot;&gt;Professor&lt;/span&gt;;&lt;/div&gt;&lt;div&gt;+ deletar(id: int): void;&lt;/div&gt;&lt;div&gt;+ listar(): List&amp;lt;&lt;span style=&quot;font-weight: 700; text-align: center;&quot;&gt;Professor&lt;/span&gt;&amp;gt;;&lt;/div&gt;" style="text;strokeColor=none;fillColor=none;align=left;verticalAlign=top;spacingLeft=4;spacingRight=4;overflow=hidden;rotatable=0;points=[[0,0.5],[1,0.5]];portConstraint=eastwest;whiteSpace=wrap;html=1;" vertex="1" parent="aA8r4PkvwZg-LG98r7ih-52">
          <mxGeometry y="60" width="220" height="90" as="geometry" />
        </mxCell>
        <mxCell id="aA8r4PkvwZg-LG98r7ih-91" style="edgeStyle=orthogonalEdgeStyle;rounded=0;orthogonalLoop=1;jettySize=auto;html=1;entryX=1;entryY=0.5;entryDx=0;entryDy=0;" edge="1" parent="1" source="aA8r4PkvwZg-LG98r7ih-56" target="aA8r4PkvwZg-LG98r7ih-43">
          <mxGeometry relative="1" as="geometry" />
        </mxCell>
        <mxCell id="aA8r4PkvwZg-LG98r7ih-56" value="DisciplinaDAO" style="swimlane;fontStyle=1;align=center;verticalAlign=top;childLayout=stackLayout;horizontal=1;startSize=26;horizontalStack=0;resizeParent=1;resizeParentMax=0;resizeLast=0;collapsible=1;marginBottom=0;whiteSpace=wrap;html=1;" vertex="1" parent="1">
          <mxGeometry x="230" y="773" width="220" height="150" as="geometry" />
        </mxCell>
        <mxCell id="aA8r4PkvwZg-LG98r7ih-57" value="- conn: Connection;" style="text;strokeColor=none;fillColor=none;align=left;verticalAlign=top;spacingLeft=4;spacingRight=4;overflow=hidden;rotatable=0;points=[[0,0.5],[1,0.5]];portConstraint=eastwest;whiteSpace=wrap;html=1;" vertex="1" parent="aA8r4PkvwZg-LG98r7ih-56">
          <mxGeometry y="26" width="220" height="26" as="geometry" />
        </mxCell>
        <mxCell id="aA8r4PkvwZg-LG98r7ih-58" value="" style="line;strokeWidth=1;fillColor=none;align=left;verticalAlign=middle;spacingTop=-1;spacingLeft=3;spacingRight=3;rotatable=0;labelPosition=right;points=[];portConstraint=eastwest;strokeColor=inherit;" vertex="1" parent="aA8r4PkvwZg-LG98r7ih-56">
          <mxGeometry y="52" width="220" height="8" as="geometry" />
        </mxCell>
        <mxCell id="aA8r4PkvwZg-LG98r7ih-59" value="+ inserir(disciplina:&amp;nbsp;&lt;span style=&quot;font-weight: 700; text-align: center;&quot;&gt;Disciplina&lt;/span&gt;): void;&lt;div&gt;+ editar(disciplina:&amp;nbsp;&lt;span style=&quot;font-weight: 700; text-align: center;&quot;&gt;Disciplina&lt;/span&gt;): void;&lt;/div&gt;&lt;div&gt;+ visualizar(id: int):&amp;nbsp;&lt;span style=&quot;font-weight: 700; text-align: center;&quot;&gt;Disciplina&lt;/span&gt;;&lt;/div&gt;&lt;div&gt;+ deletar(id: int): void;&lt;/div&gt;&lt;div&gt;+ listar(): List&amp;lt;&lt;span style=&quot;font-weight: 700; text-align: center;&quot;&gt;Disciplina&lt;/span&gt;&amp;gt;;&lt;/div&gt;" style="text;strokeColor=none;fillColor=none;align=left;verticalAlign=top;spacingLeft=4;spacingRight=4;overflow=hidden;rotatable=0;points=[[0,0.5],[1,0.5]];portConstraint=eastwest;whiteSpace=wrap;html=1;" vertex="1" parent="aA8r4PkvwZg-LG98r7ih-56">
          <mxGeometry y="60" width="220" height="90" as="geometry" />
        </mxCell>
        <mxCell id="aA8r4PkvwZg-LG98r7ih-92" style="edgeStyle=orthogonalEdgeStyle;rounded=0;orthogonalLoop=1;jettySize=auto;html=1;entryX=1;entryY=0.5;entryDx=0;entryDy=0;" edge="1" parent="1" source="aA8r4PkvwZg-LG98r7ih-60" target="aA8r4PkvwZg-LG98r7ih-43">
          <mxGeometry relative="1" as="geometry" />
        </mxCell>
        <mxCell id="aA8r4PkvwZg-LG98r7ih-60" value="EscolaDAO" style="swimlane;fontStyle=1;align=center;verticalAlign=top;childLayout=stackLayout;horizontal=1;startSize=26;horizontalStack=0;resizeParent=1;resizeParentMax=0;resizeLast=0;collapsible=1;marginBottom=0;whiteSpace=wrap;html=1;" vertex="1" parent="1">
          <mxGeometry x="460" y="773" width="220" height="150" as="geometry" />
        </mxCell>
        <mxCell id="aA8r4PkvwZg-LG98r7ih-61" value="- conn: Connection;" style="text;strokeColor=none;fillColor=none;align=left;verticalAlign=top;spacingLeft=4;spacingRight=4;overflow=hidden;rotatable=0;points=[[0,0.5],[1,0.5]];portConstraint=eastwest;whiteSpace=wrap;html=1;" vertex="1" parent="aA8r4PkvwZg-LG98r7ih-60">
          <mxGeometry y="26" width="220" height="26" as="geometry" />
        </mxCell>
        <mxCell id="aA8r4PkvwZg-LG98r7ih-62" value="" style="line;strokeWidth=1;fillColor=none;align=left;verticalAlign=middle;spacingTop=-1;spacingLeft=3;spacingRight=3;rotatable=0;labelPosition=right;points=[];portConstraint=eastwest;strokeColor=inherit;" vertex="1" parent="aA8r4PkvwZg-LG98r7ih-60">
          <mxGeometry y="52" width="220" height="8" as="geometry" />
        </mxCell>
        <mxCell id="aA8r4PkvwZg-LG98r7ih-63" value="+ inserir(escola:&amp;nbsp;&lt;span style=&quot;font-weight: 700; text-align: center;&quot;&gt;Escola&lt;/span&gt;): void;&lt;div&gt;+ editar(escola:&amp;nbsp;&lt;span style=&quot;font-weight: 700; text-align: center;&quot;&gt;Escola&lt;/span&gt;): void;&lt;/div&gt;&lt;div&gt;+ visualizar(id: int):&amp;nbsp;&lt;span style=&quot;font-weight: 700; text-align: center;&quot;&gt;Escola&lt;/span&gt;;&lt;/div&gt;&lt;div&gt;+ deletar(id: int): void;&lt;/div&gt;&lt;div&gt;+ listar(): List&amp;lt;&lt;span style=&quot;font-weight: 700; text-align: center;&quot;&gt;Escola&lt;/span&gt;&amp;gt;;&lt;/div&gt;" style="text;strokeColor=none;fillColor=none;align=left;verticalAlign=top;spacingLeft=4;spacingRight=4;overflow=hidden;rotatable=0;points=[[0,0.5],[1,0.5]];portConstraint=eastwest;whiteSpace=wrap;html=1;" vertex="1" parent="aA8r4PkvwZg-LG98r7ih-60">
          <mxGeometry y="60" width="220" height="90" as="geometry" />
        </mxCell>
        <mxCell id="aA8r4PkvwZg-LG98r7ih-90" style="edgeStyle=orthogonalEdgeStyle;rounded=0;orthogonalLoop=1;jettySize=auto;html=1;entryX=0.5;entryY=0;entryDx=0;entryDy=0;" edge="1" parent="1" source="aA8r4PkvwZg-LG98r7ih-64" target="aA8r4PkvwZg-LG98r7ih-40">
          <mxGeometry relative="1" as="geometry" />
        </mxCell>
        <mxCell id="aA8r4PkvwZg-LG98r7ih-64" value="MatriculaDAO" style="swimlane;fontStyle=1;align=center;verticalAlign=top;childLayout=stackLayout;horizontal=1;startSize=26;horizontalStack=0;resizeParent=1;resizeParentMax=0;resizeLast=0;collapsible=1;marginBottom=0;whiteSpace=wrap;html=1;" vertex="1" parent="1">
          <mxGeometry y="773" width="220" height="150" as="geometry" />
        </mxCell>
        <mxCell id="aA8r4PkvwZg-LG98r7ih-65" value="- conn: Connection;" style="text;strokeColor=none;fillColor=none;align=left;verticalAlign=top;spacingLeft=4;spacingRight=4;overflow=hidden;rotatable=0;points=[[0,0.5],[1,0.5]];portConstraint=eastwest;whiteSpace=wrap;html=1;" vertex="1" parent="aA8r4PkvwZg-LG98r7ih-64">
          <mxGeometry y="26" width="220" height="26" as="geometry" />
        </mxCell>
        <mxCell id="aA8r4PkvwZg-LG98r7ih-66" value="" style="line;strokeWidth=1;fillColor=none;align=left;verticalAlign=middle;spacingTop=-1;spacingLeft=3;spacingRight=3;rotatable=0;labelPosition=right;points=[];portConstraint=eastwest;strokeColor=inherit;" vertex="1" parent="aA8r4PkvwZg-LG98r7ih-64">
          <mxGeometry y="52" width="220" height="8" as="geometry" />
        </mxCell>
        <mxCell id="aA8r4PkvwZg-LG98r7ih-67" value="+ inserir(matricula:&amp;nbsp;&lt;span style=&quot;font-weight: 700; text-align: center;&quot;&gt;Matricula&lt;/span&gt;): void;&lt;div&gt;+ editar(matricula:&amp;nbsp;&lt;span style=&quot;font-weight: 700; text-align: center;&quot;&gt;Matricula&lt;/span&gt;): void;&lt;/div&gt;&lt;div&gt;+ visualizar(id: int):&amp;nbsp;&lt;span style=&quot;font-weight: 700; text-align: center;&quot;&gt;Matricula&lt;/span&gt;;&lt;/div&gt;&lt;div&gt;+ deletar(id: int): void;&lt;/div&gt;&lt;div&gt;+ listar(): List&amp;lt;&lt;span style=&quot;font-weight: 700; text-align: center;&quot;&gt;Matricula&lt;/span&gt;&amp;gt;;&lt;/div&gt;" style="text;strokeColor=none;fillColor=none;align=left;verticalAlign=top;spacingLeft=4;spacingRight=4;overflow=hidden;rotatable=0;points=[[0,0.5],[1,0.5]];portConstraint=eastwest;whiteSpace=wrap;html=1;" vertex="1" parent="aA8r4PkvwZg-LG98r7ih-64">
          <mxGeometry y="60" width="220" height="90" as="geometry" />
        </mxCell>
        <mxCell id="aA8r4PkvwZg-LG98r7ih-87" style="edgeStyle=orthogonalEdgeStyle;rounded=0;orthogonalLoop=1;jettySize=auto;html=1;entryX=0;entryY=0.5;entryDx=0;entryDy=0;" edge="1" parent="1" source="aA8r4PkvwZg-LG98r7ih-71" target="aA8r4PkvwZg-LG98r7ih-43">
          <mxGeometry relative="1" as="geometry" />
        </mxCell>
        <mxCell id="aA8r4PkvwZg-LG98r7ih-71" value="NotaDAO" style="swimlane;fontStyle=1;align=center;verticalAlign=top;childLayout=stackLayout;horizontal=1;startSize=26;horizontalStack=0;resizeParent=1;resizeParentMax=0;resizeLast=0;collapsible=1;marginBottom=0;whiteSpace=wrap;html=1;" vertex="1" parent="1">
          <mxGeometry x="-633" y="773" width="220" height="150" as="geometry" />
        </mxCell>
        <mxCell id="aA8r4PkvwZg-LG98r7ih-72" value="- conn: Connection;" style="text;strokeColor=none;fillColor=none;align=left;verticalAlign=top;spacingLeft=4;spacingRight=4;overflow=hidden;rotatable=0;points=[[0,0.5],[1,0.5]];portConstraint=eastwest;whiteSpace=wrap;html=1;" vertex="1" parent="aA8r4PkvwZg-LG98r7ih-71">
          <mxGeometry y="26" width="220" height="26" as="geometry" />
        </mxCell>
        <mxCell id="aA8r4PkvwZg-LG98r7ih-73" value="" style="line;strokeWidth=1;fillColor=none;align=left;verticalAlign=middle;spacingTop=-1;spacingLeft=3;spacingRight=3;rotatable=0;labelPosition=right;points=[];portConstraint=eastwest;strokeColor=inherit;" vertex="1" parent="aA8r4PkvwZg-LG98r7ih-71">
          <mxGeometry y="52" width="220" height="8" as="geometry" />
        </mxCell>
        <mxCell id="aA8r4PkvwZg-LG98r7ih-74" value="+ inserir(nota:&amp;nbsp;&lt;span style=&quot;font-weight: 700; text-align: center;&quot;&gt;Nota&lt;/span&gt;): void;&lt;div&gt;+ editar(nota:&amp;nbsp;&lt;span style=&quot;font-weight: 700; text-align: center;&quot;&gt;Nota&lt;/span&gt;): void;&lt;/div&gt;&lt;div&gt;+ visualizar(id: int):&amp;nbsp;&lt;span style=&quot;font-weight: 700; text-align: center;&quot;&gt;Nota&lt;/span&gt;;&lt;/div&gt;&lt;div&gt;+ deletar(id: int): void;&lt;/div&gt;&lt;div&gt;+ listar(): List&amp;lt;&lt;span style=&quot;font-weight: 700; text-align: center;&quot;&gt;Nota&lt;/span&gt;&amp;gt;;&lt;/div&gt;" style="text;strokeColor=none;fillColor=none;align=left;verticalAlign=top;spacingLeft=4;spacingRight=4;overflow=hidden;rotatable=0;points=[[0,0.5],[1,0.5]];portConstraint=eastwest;whiteSpace=wrap;html=1;" vertex="1" parent="aA8r4PkvwZg-LG98r7ih-71">
          <mxGeometry y="60" width="220" height="90" as="geometry" />
        </mxCell>
        <mxCell id="aA8r4PkvwZg-LG98r7ih-93" style="edgeStyle=orthogonalEdgeStyle;rounded=0;orthogonalLoop=1;jettySize=auto;html=1;entryX=1;entryY=0.5;entryDx=0;entryDy=0;" edge="1" parent="1" source="aA8r4PkvwZg-LG98r7ih-75" target="aA8r4PkvwZg-LG98r7ih-43">
          <mxGeometry relative="1" as="geometry" />
        </mxCell>
        <mxCell id="aA8r4PkvwZg-LG98r7ih-75" value="TurmaDAO" style="swimlane;fontStyle=1;align=center;verticalAlign=top;childLayout=stackLayout;horizontal=1;startSize=26;horizontalStack=0;resizeParent=1;resizeParentMax=0;resizeLast=0;collapsible=1;marginBottom=0;whiteSpace=wrap;html=1;" vertex="1" parent="1">
          <mxGeometry x="700" y="773" width="220" height="150" as="geometry" />
        </mxCell>
        <mxCell id="aA8r4PkvwZg-LG98r7ih-76" value="- conn: Connection;" style="text;strokeColor=none;fillColor=none;align=left;verticalAlign=top;spacingLeft=4;spacingRight=4;overflow=hidden;rotatable=0;points=[[0,0.5],[1,0.5]];portConstraint=eastwest;whiteSpace=wrap;html=1;" vertex="1" parent="aA8r4PkvwZg-LG98r7ih-75">
          <mxGeometry y="26" width="220" height="26" as="geometry" />
        </mxCell>
        <mxCell id="aA8r4PkvwZg-LG98r7ih-77" value="" style="line;strokeWidth=1;fillColor=none;align=left;verticalAlign=middle;spacingTop=-1;spacingLeft=3;spacingRight=3;rotatable=0;labelPosition=right;points=[];portConstraint=eastwest;strokeColor=inherit;" vertex="1" parent="aA8r4PkvwZg-LG98r7ih-75">
          <mxGeometry y="52" width="220" height="8" as="geometry" />
        </mxCell>
        <mxCell id="aA8r4PkvwZg-LG98r7ih-78" value="+ inserir(turma:&amp;nbsp;&lt;span style=&quot;font-weight: 700; text-align: center;&quot;&gt;Turma&lt;/span&gt;): void;&lt;div&gt;+ editar(turma:&amp;nbsp;&lt;span style=&quot;font-weight: 700; text-align: center;&quot;&gt;Turma&lt;/span&gt;): void;&lt;/div&gt;&lt;div&gt;+ visualizar(id: int):&amp;nbsp;&lt;span style=&quot;font-weight: 700; text-align: center;&quot;&gt;Turma&lt;/span&gt;;&lt;/div&gt;&lt;div&gt;+ deletar(id: int): void;&lt;/div&gt;&lt;div&gt;+ listar(): List&amp;lt;&lt;span style=&quot;font-weight: 700; text-align: center;&quot;&gt;Turma&lt;/span&gt;&amp;gt;;&lt;/div&gt;" style="text;strokeColor=none;fillColor=none;align=left;verticalAlign=top;spacingLeft=4;spacingRight=4;overflow=hidden;rotatable=0;points=[[0,0.5],[1,0.5]];portConstraint=eastwest;whiteSpace=wrap;html=1;" vertex="1" parent="aA8r4PkvwZg-LG98r7ih-75">
          <mxGeometry y="60" width="220" height="90" as="geometry" />
        </mxCell>
        <mxCell id="aA8r4PkvwZg-LG98r7ih-94" value="" style="endArrow=diamondThin;endFill=0;endSize=24;html=1;rounded=0;exitX=0;exitY=0.5;exitDx=0;exitDy=0;entryX=0.5;entryY=0;entryDx=0;entryDy=0;" edge="1" parent="1" source="aA8r4PkvwZg-LG98r7ih-51" target="aA8r4PkvwZg-LG98r7ih-44">
          <mxGeometry width="160" relative="1" as="geometry">
            <mxPoint x="360" y="490" as="sourcePoint" />
            <mxPoint x="400" y="712" as="targetPoint" />
          </mxGeometry>
        </mxCell>
        <mxCell id="aA8r4PkvwZg-LG98r7ih-95" value="" style="endArrow=diamondThin;endFill=0;endSize=24;html=1;rounded=0;exitX=0;exitY=0.5;exitDx=0;exitDy=0;entryX=0.5;entryY=0;entryDx=0;entryDy=0;" edge="1" parent="1" source="aA8r4PkvwZg-LG98r7ih-51" target="aA8r4PkvwZg-LG98r7ih-52">
          <mxGeometry width="160" relative="1" as="geometry">
            <mxPoint x="600" y="585" as="sourcePoint" />
            <mxPoint x="-310" y="658" as="targetPoint" />
          </mxGeometry>
        </mxCell>
        <mxCell id="aA8r4PkvwZg-LG98r7ih-96" value="" style="endArrow=diamondThin;endFill=0;endSize=24;html=1;rounded=0;exitX=0;exitY=0.5;exitDx=0;exitDy=0;entryX=0.5;entryY=0;entryDx=0;entryDy=0;" edge="1" parent="1" source="aA8r4PkvwZg-LG98r7ih-51" target="aA8r4PkvwZg-LG98r7ih-64">
          <mxGeometry width="160" relative="1" as="geometry">
            <mxPoint x="1270" y="590" as="sourcePoint" />
            <mxPoint x="560" y="663" as="targetPoint" />
          </mxGeometry>
        </mxCell>
        <mxCell id="aA8r4PkvwZg-LG98r7ih-97" value="" style="endArrow=diamondThin;endFill=0;endSize=24;html=1;rounded=0;exitX=0;exitY=0.5;exitDx=0;exitDy=0;entryX=0.5;entryY=0;entryDx=0;entryDy=0;" edge="1" parent="1" source="aA8r4PkvwZg-LG98r7ih-51" target="aA8r4PkvwZg-LG98r7ih-56">
          <mxGeometry width="160" relative="1" as="geometry">
            <mxPoint x="1010" y="580" as="sourcePoint" />
            <mxPoint x="530" y="653" as="targetPoint" />
          </mxGeometry>
        </mxCell>
        <mxCell id="aA8r4PkvwZg-LG98r7ih-98" value="" style="endArrow=diamondThin;endFill=0;endSize=24;html=1;rounded=0;exitX=0.507;exitY=1.145;exitDx=0;exitDy=0;entryX=0.5;entryY=0;entryDx=0;entryDy=0;exitPerimeter=0;" edge="1" parent="1" source="aA8r4PkvwZg-LG98r7ih-51" target="aA8r4PkvwZg-LG98r7ih-60">
          <mxGeometry width="160" relative="1" as="geometry">
            <mxPoint x="870" y="600" as="sourcePoint" />
            <mxPoint x="620" y="673" as="targetPoint" />
          </mxGeometry>
        </mxCell>
        <mxCell id="aA8r4PkvwZg-LG98r7ih-99" value="" style="endArrow=diamondThin;endFill=0;endSize=24;html=1;rounded=0;entryX=0.5;entryY=0;entryDx=0;entryDy=0;exitX=0.52;exitY=0.964;exitDx=0;exitDy=0;exitPerimeter=0;" edge="1" parent="1" source="aA8r4PkvwZg-LG98r7ih-51" target="aA8r4PkvwZg-LG98r7ih-75">
          <mxGeometry width="160" relative="1" as="geometry">
            <mxPoint x="720" y="590" as="sourcePoint" />
            <mxPoint x="740" y="646" as="targetPoint" />
          </mxGeometry>
        </mxCell>
        <mxCell id="aA8r4PkvwZg-LG98r7ih-100" value="" style="endArrow=diamondThin;endFill=0;endSize=24;html=1;rounded=0;exitX=0;exitY=0.5;exitDx=0;exitDy=0;entryX=0.5;entryY=0;entryDx=0;entryDy=0;" edge="1" parent="1" source="aA8r4PkvwZg-LG98r7ih-51" target="aA8r4PkvwZg-LG98r7ih-71">
          <mxGeometry width="160" relative="1" as="geometry">
            <mxPoint x="590" y="699.9999999999998" as="sourcePoint" />
            <mxPoint x="530" y="786" as="targetPoint" />
          </mxGeometry>
        </mxCell>
        <mxCell id="aA8r4PkvwZg-LG98r7ih-101" value="" style="endArrow=diamondThin;endFill=0;endSize=24;html=1;rounded=0;exitX=0.5;exitY=1;exitDx=0;exitDy=0;entryX=0.5;entryY=0;entryDx=0;entryDy=0;" edge="1" parent="1" source="aA8r4PkvwZg-LG98r7ih-30" target="aA8r4PkvwZg-LG98r7ih-71">
          <mxGeometry width="160" relative="1" as="geometry">
            <mxPoint x="170" y="380" as="sourcePoint" />
            <mxPoint x="370" y="572" as="targetPoint" />
          </mxGeometry>
        </mxCell>
        <mxCell id="aA8r4PkvwZg-LG98r7ih-103" value="" style="endArrow=diamondThin;endFill=0;endSize=24;html=1;rounded=0;exitX=0.485;exitY=0.167;exitDx=0;exitDy=0;entryX=0.5;entryY=0;entryDx=0;entryDy=0;exitPerimeter=0;" edge="1" parent="1" source="aA8r4PkvwZg-LG98r7ih-7" target="aA8r4PkvwZg-LG98r7ih-44">
          <mxGeometry width="160" relative="1" as="geometry">
            <mxPoint x="783" y="590" as="sourcePoint" />
            <mxPoint x="70" y="805" as="targetPoint" />
          </mxGeometry>
        </mxCell>
        <mxCell id="aA8r4PkvwZg-LG98r7ih-104" value="" style="endArrow=diamondThin;endFill=0;endSize=24;html=1;rounded=0;exitX=0.5;exitY=1;exitDx=0;exitDy=0;entryX=0.5;entryY=0;entryDx=0;entryDy=0;" edge="1" parent="1" source="aA8r4PkvwZg-LG98r7ih-8" target="aA8r4PkvwZg-LG98r7ih-52">
          <mxGeometry width="160" relative="1" as="geometry">
            <mxPoint x="208" y="750" as="sourcePoint" />
            <mxPoint x="-220" y="1312" as="targetPoint" />
          </mxGeometry>
        </mxCell>
        <mxCell id="aA8r4PkvwZg-LG98r7ih-105" value="" style="endArrow=diamondThin;endFill=0;endSize=24;html=1;rounded=0;exitX=0.5;exitY=1;exitDx=0;exitDy=0;entryX=0.5;entryY=0;entryDx=0;entryDy=0;" edge="1" parent="1" source="aA8r4PkvwZg-LG98r7ih-25" target="aA8r4PkvwZg-LG98r7ih-64">
          <mxGeometry width="160" relative="1" as="geometry">
            <mxPoint x="700" y="380" as="sourcePoint" />
            <mxPoint x="300" y="835" as="targetPoint" />
          </mxGeometry>
        </mxCell>
        <mxCell id="aA8r4PkvwZg-LG98r7ih-106" value="" style="endArrow=diamondThin;endFill=0;endSize=24;html=1;rounded=0;exitX=0.517;exitY=0.792;exitDx=0;exitDy=0;entryX=0.5;entryY=0;entryDx=0;entryDy=0;exitPerimeter=0;" edge="1" parent="1" source="aA8r4PkvwZg-LG98r7ih-21" target="aA8r4PkvwZg-LG98r7ih-56">
          <mxGeometry width="160" relative="1" as="geometry">
            <mxPoint x="170" y="690" as="sourcePoint" />
            <mxPoint x="693" y="915" as="targetPoint" />
          </mxGeometry>
        </mxCell>
        <mxCell id="aA8r4PkvwZg-LG98r7ih-108" value="&lt;div&gt;Escola&lt;/div&gt;" style="swimlane;fontStyle=1;align=center;verticalAlign=top;childLayout=stackLayout;horizontal=1;startSize=26;horizontalStack=0;resizeParent=1;resizeParentMax=0;resizeLast=0;collapsible=1;marginBottom=0;whiteSpace=wrap;html=1;" vertex="1" parent="1">
          <mxGeometry x="-150" y="450" width="200" height="108" as="geometry" />
        </mxCell>
        <mxCell id="aA8r4PkvwZg-LG98r7ih-109" value="- id: int;&lt;div&gt;- nome: string;&lt;/div&gt;&lt;div&gt;- alunos: ArrayList&amp;lt;Aluno&amp;gt;;&lt;/div&gt;&lt;div&gt;- professores: ArrayList&amp;lt;&lt;span style=&quot;background-color: transparent; color: light-dark(rgb(0, 0, 0), rgb(255, 255, 255));&quot;&gt;Professor&lt;/span&gt;&lt;span style=&quot;background-color: transparent; color: light-dark(rgb(0, 0, 0), rgb(255, 255, 255));&quot;&gt;&amp;gt;;&lt;/span&gt;&lt;/div&gt;" style="text;strokeColor=none;fillColor=none;align=left;verticalAlign=top;spacingLeft=4;spacingRight=4;overflow=hidden;rotatable=0;points=[[0,0.5],[1,0.5]];portConstraint=eastwest;whiteSpace=wrap;html=1;" vertex="1" parent="aA8r4PkvwZg-LG98r7ih-108">
          <mxGeometry y="26" width="200" height="74" as="geometry" />
        </mxCell>
        <mxCell id="aA8r4PkvwZg-LG98r7ih-110" value="" style="line;strokeWidth=1;fillColor=none;align=left;verticalAlign=middle;spacingTop=-1;spacingLeft=3;spacingRight=3;rotatable=0;labelPosition=right;points=[];portConstraint=eastwest;strokeColor=inherit;" vertex="1" parent="aA8r4PkvwZg-LG98r7ih-108">
          <mxGeometry y="100" width="200" height="8" as="geometry" />
        </mxCell>
        <mxCell id="aA8r4PkvwZg-LG98r7ih-111" value="" style="endArrow=diamondThin;endFill=0;endSize=24;html=1;rounded=0;exitX=0.544;exitY=0.125;exitDx=0;exitDy=0;entryX=0.5;entryY=0;entryDx=0;entryDy=0;exitPerimeter=0;" edge="1" parent="1" source="aA8r4PkvwZg-LG98r7ih-7" target="aA8r4PkvwZg-LG98r7ih-108">
          <mxGeometry width="160" relative="1" as="geometry">
            <mxPoint x="373" y="370" as="sourcePoint" />
            <mxPoint x="-70" y="665" as="targetPoint" />
          </mxGeometry>
        </mxCell>
        <mxCell id="aA8r4PkvwZg-LG98r7ih-112" value="" style="endArrow=diamondThin;endFill=0;endSize=24;html=1;rounded=0;exitX=0.542;exitY=0.308;exitDx=0;exitDy=0;entryX=0.5;entryY=0;entryDx=0;entryDy=0;exitPerimeter=0;" edge="1" parent="1" source="aA8r4PkvwZg-LG98r7ih-10" target="aA8r4PkvwZg-LG98r7ih-108">
          <mxGeometry width="160" relative="1" as="geometry">
            <mxPoint x="197" y="360" as="sourcePoint" />
            <mxPoint x="30" y="599" as="targetPoint" />
          </mxGeometry>
        </mxCell>
        <mxCell id="aA8r4PkvwZg-LG98r7ih-113" value="" style="endArrow=diamondThin;endFill=0;endSize=24;html=1;rounded=0;exitX=0.497;exitY=0.386;exitDx=0;exitDy=0;entryX=0.5;entryY=0;entryDx=0;entryDy=0;exitPerimeter=0;" edge="1" parent="1" source="aA8r4PkvwZg-LG98r7ih-110" target="aA8r4PkvwZg-LG98r7ih-60">
          <mxGeometry width="160" relative="1" as="geometry">
            <mxPoint x="457" y="610" as="sourcePoint" />
            <mxPoint x="120" y="748" as="targetPoint" />
          </mxGeometry>
        </mxCell>
        <mxCell id="aA8r4PkvwZg-LG98r7ih-114" value="" style="endArrow=diamondThin;endFill=0;endSize=24;html=1;rounded=0;exitX=0.5;exitY=1;exitDx=0;exitDy=0;entryX=0.5;entryY=0;entryDx=0;entryDy=0;" edge="1" parent="1" source="aA8r4PkvwZg-LG98r7ih-15" target="aA8r4PkvwZg-LG98r7ih-75">
          <mxGeometry width="160" relative="1" as="geometry">
            <mxPoint x="810" y="700" as="sourcePoint" />
            <mxPoint x="1431" y="920" as="targetPoint" />
          </mxGeometry>
        </mxCell>
      </root>
    </mxGraphModel>
  </diagram>
</mxfile>
